<?xml version="1.0" encoding="utf-8"?>
<!-- Generator: Adobe Illustrator 19.0.0, SVG Export Plug-In . SVG Version: 6.00 Build 0)  -->
<svg version="1.1" xmlns="http://www.w3.org/2000/svg" xmlns:xlink="http://www.w3.org/1999/xlink" x="0px" y="0px"
	 viewBox="607 -156.2 1356 1152" style="enable-background:new 607 -156.2 1356 1152;" xml:space="preserve">
<style type="text/css">
	.st0{display:none;}
	.st1{display:inline;fill:none;stroke:#000000;stroke-width:0.25;stroke-miterlimit:10;}
	.st2{fill:none;stroke:#000000;stroke-width:0.25;}
	.st3{fill:none;stroke:#000000;stroke-width:0.25;stroke-miterlimit:10;}
	.st4{display:inline;}
	.st5{fill:#FF0000;fill-opacity:0.5;stroke:#FF0000;stroke-opacity:0.7;}
	.st6{fill:none;stroke:#000000;stroke-width:3;}
	.st7{font-family:'Helvetica-Bold';}
	.st8{font-size:21px;}
	.st9{clip-path:url(#SVGID_2_);}
	.st10{fill:none;}
	.st11{fill:none;stroke:#000000;stroke-miterlimit:10;}
	.st12{fill:none;stroke:#000000;stroke-miterlimit:10;stroke-dasharray:2.0292,3.0438;}
	.st13{fill:none;stroke:#000000;stroke-miterlimit:10;stroke-dasharray:2.0294,3.0441;}
	.st14{fill:none;stroke:#000000;stroke-miterlimit:10;stroke-dasharray:2.0269,3.0403;}
	.st15{fill:none;stroke:#000000;stroke-miterlimit:10;stroke-dasharray:2.027,3.0405;}
	.st16{fill:none;stroke:#000000;stroke-miterlimit:10;stroke-dasharray:2.0245,3.0368;}
	.st17{fill:none;stroke:#000000;stroke-miterlimit:10;stroke-dasharray:2.0247,3.037;}
	.st18{fill:none;stroke:#000000;stroke-miterlimit:10;stroke-dasharray:2.0222,3.0333;}
	.st19{fill:none;stroke:#000000;stroke-miterlimit:10;stroke-dasharray:2.0223,3.0335;}
	.st20{fill:none;stroke:#000000;stroke-miterlimit:10;stroke-dasharray:2.0198,3.0297;}
	.st21{fill:none;stroke:#000000;stroke-miterlimit:10;stroke-dasharray:2.02,3.03;}
	.st22{fill:none;stroke:#000000;stroke-miterlimit:10;stroke-dasharray:2.0175,3.0262;}
	.st23{fill:none;stroke:#000000;stroke-miterlimit:10;stroke-dasharray:2.0176,3.0265;}
	.st24{fill:none;stroke:#000000;stroke-miterlimit:10;stroke-dasharray:2.0151,3.0227;}
	.st25{fill:none;stroke:#000000;stroke-miterlimit:10;stroke-dasharray:2.0153,3.023;}
	.st26{fill:none;stroke:#000000;stroke-miterlimit:10;stroke-dasharray:2.0128,3.0192;}
	.st27{fill:none;stroke:#000000;stroke-miterlimit:10;stroke-dasharray:2.013,3.0194;}
	.st28{fill:none;stroke:#000000;stroke-miterlimit:10;stroke-dasharray:2.0105,3.0157;}
	.st29{fill:none;stroke:#000000;stroke-miterlimit:10;stroke-dasharray:2.0106,3.0159;}
	.st30{fill:none;stroke:#000000;stroke-miterlimit:10;stroke-dasharray:2.0081,3.0122;}
	.st31{fill:none;stroke:#000000;stroke-miterlimit:10;stroke-dasharray:2.0083,3.0124;}
	.st32{fill:none;stroke:#000000;stroke-miterlimit:10;stroke-dasharray:2.0058,3.0087;}
	.st33{fill:none;stroke:#000000;stroke-miterlimit:10;stroke-dasharray:2.0059,3.0089;}
	.st34{fill:none;stroke:#000000;stroke-miterlimit:10;stroke-dasharray:2.0034,3.0051;}
	.st35{fill:none;stroke:#000000;stroke-miterlimit:10;stroke-dasharray:2.0036,3.0054;}
	.st36{fill:none;stroke:#000000;stroke-miterlimit:10;stroke-dasharray:2.0011,3.0016;}
	.st37{fill:none;stroke:#000000;stroke-miterlimit:10;stroke-dasharray:2.0012,3.0019;}
	.st38{fill:#176F0F;fill-opacity:0.5;stroke:#176F0F;stroke-opacity:0.7;}
	.st39{fill:#6F5F0F;fill-opacity:0.5;stroke:#6F5F0F;stroke-opacity:0.7;}
	.st40{fill:#6F0F0F;fill-opacity:0.5;stroke:#6F0F0F;stroke-opacity:0.7;}
	.st41{fill:#0F0F6F;fill-opacity:0.5;stroke:#0F0F6F;stroke-opacity:0.7;}
	.st42{fill:#176F0F;}
	.st43{font-family:'Helvetica';}
	.st44{font-size:20.7444px;}
	.st45{fill:#6F5F0F;}
	.st46{font-size:17.6548px;}
	.st47{font-size:18.6927px;}
	.st48{fill:#6F0F0F;}
	.st49{font-size:19.887px;}
	.st50{font-size:16.8182px;}
	.st51{font-size:15.097px;}
	.st52{fill:#0F0F6F;}
	.st53{font-size:18.1192px;}
	.st54{font-size:17.0637px;}
	.st55{font-size:23.0526px;}
	.st56{font-size:19.7631px;}
	.st57{font-size:16.619px;}
	.st58{font-size:17.4516px;}
	.st59{font-size:17.94px;}
	.st60{font-size:18.2909px;}
	.st61{font-size:15.6271px;}
	.st62{font-size:20.9811px;}
	.st63{font-size:21.1092px;}
	.st64{font-size:19.4739px;}
	.st65{font-size:17.291px;}
	.st66{font-size:18.0306px;}
	.st67{font-size:17.9855px;}
	.st68{font-size:23.1911px;}
	.st69{font-size:20.8507px;}
	.st70{font-size:20.6093px;}
	.st71{font-size:14.9812px;}
	.st72{font-size:16.194px;}
	.st73{font-size:19.846px;}
	.st74{font-size:22.4759px;}
	.st75{font-size:16.327px;}
	.st76{font-size:23.4811px;}
	.st77{font-size:17.469px;}
	.st78{font-size:23.781px;}
	.st79{font-size:23.2498px;}
	.st80{font-size:23.3276px;}
	.st81{font-size:15.4718px;}
	.st82{font-size:24px;}
	.st83{font-size:17.2356px;}
	.st84{font-size:18.1628px;}
	.st85{font-size:15.3876px;}
	.st86{font-size:21.9937px;}
	.st87{font-size:15.7688px;}
	.st88{font-size:16.6419px;}
	.st89{font-size:19.3065px;}
	.st90{font-size:22.3255px;}
	.st91{font-size:15.9623px;}
	.st92{font-size:18.4153px;}
	.st93{font-size:15.9928px;}
	.st94{font-size:19.1336px;}
	.st95{font-size:16.9435px;}
	.st96{font-size:20.3303px;}
	.st97{font-size:20.0084px;}
	.st98{font-size:18.9181px;}
	.st99{font-size:21.8109px;}
	.st100{font-size:15.6994px;}
	.st101{font-size:16.4034px;}
	.st102{font-size:18.6152px;}
	.st103{font-size:21.9028px;}
	.st104{font-size:16.4773px;}
	.st105{font-size:19.6043px;}
	.st106{font-size:21.3342px;}
	.st107{font-size:21.4804px;}
	.st108{font-size:18.991px;}
	.st109{font-size:16.687px;}
	.st110{font-size:22.5184px;}
	.st111{font-size:22.3472px;}
	.st112{font-size:21.6475px;}
	.st113{font-size:15.9px;}
	.st114{font-size:18.3742px;}
	.st115{font-size:20.9032px;}
	.st116{font-size:23.744px;}
	.st117{font-size:22.6655px;}
	.st118{font-size:16.4529px;}
	.st119{font-size:20.3587px;}
	.st120{font-size:14.7757px;}
	.st121{font-size:23.8911px;}
	.st122{font-size:20.8242px;}
	.st123{font-size:17.3453px;}
	.st124{font-size:18.8067px;}
	.st125{font-size:16.7534px;}
	.st126{font-size:17.7523px;}
	.st127{font-size:17.7038px;}
	.st128{font-size:19.027px;}
	.st129{font-size:15.2017px;}
	.st130{font-size:18.0751px;}
	.st131{font-size:23.8178px;}
	.st132{font-size:19.4408px;}
	.st133{font-size:20.5819px;}
	.st134{font-size:21.1346px;}
	.st135{font-size:22.6237px;}
	.st136{font-size:20.5544px;}
	.st137{font-size:16.1664px;}
	.st138{font-size:22.0611px;}
	.st139{font-size:18.2486px;}
	.st140{font-size:16.7752px;}
	.st141{font-size:19.1686px;}
	.st142{font-size:19.3741px;}
	.st143{font-size:16.2481px;}
</style>
<g id="hidden_helpers" class="st0">
	<circle class="st1" cx="1302" cy="419.9" r="561.3"/>
</g>
<g id="helpers">
	<g>
		<line class="st2" x1="1302" y1="419.9" x2="1628.6" y2="985.6"/>
		<line class="st2" x1="1302" y1="419.9" x2="648.8" y2="419.9"/>
		<line class="st2" x1="1302" y1="419.9" x2="1628.6" y2="-145.8"/>
	</g>
	<polygon class="st3" points="1021.3,-66.3 1582.7,-66.3 1863.3,419.9 1582.7,906.1 1021.3,906.1 740.7,419.9 	"/>
</g>
<g id="anchors" class="st0">
	<g transform="translate(0.0, 0.0) rotate(-00) " class="st4">
		<circle class="st5" cx="1302" cy="419.9" r="10"/>
	</g>
	<g transform="translate(653.197181571, 0.0) rotate(-00) " class="st4">
		<circle class="st5" cx="1302" cy="419.9" r="10"/>
	</g>
	<g transform="translate(-326.598715542, 565.685424949) rotate(-00) " class="st4">
		<circle class="st5" cx="1302" cy="419.9" r="10"/>
	</g>
	<g transform="translate(-326.598715542, -565.685424949) rotate(-00) " class="st4">
		<circle class="st5" cx="1302" cy="419.9" r="10"/>
	</g>
</g>
<g id="grids">
	<g>
		<g>
			<line class="st6" x1="1302" y1="419.9" x2="988.7" y2="-122.8"/>
			<g>
				<polygon points="999.2,-122 975.4,-145.8 984.1,-113.3 				"/>
			</g>
		</g>
	</g>
	<g>
		<g>
			<line class="st6" x1="1302" y1="419.9" x2="1928.6" y2="419.9"/>
			<g>
				<polygon points="1922.7,428.6 1955.2,419.9 1922.7,411.2 				"/>
			</g>
		</g>
	</g>
	<g>
		<g>
			<line class="st6" x1="1302" y1="419.9" x2="988.7" y2="962.6"/>
			<g>
				<polygon points="984.1,953.1 975.4,985.6 999.2,961.8 				"/>
			</g>
		</g>
	</g>
	<text transform="matrix(1 0 0 1 1875.4596 443.0663)" class="st7 st8">TNG</text>
	<text transform="matrix(1 0 0 1 1001.5229 -115.0546)" class="st7 st8">TOS</text>
	<text transform="matrix(1 0 0 1 1003.5805 968.4517)" class="st7 st8">TAS</text>
	<g>
		<defs>
			<polygon id="SVGID_1_" points="1021.3,-66.3 1582.7,-66.3 1863.3,419.9 1582.7,906.1 1021.3,906.1 740.7,419.9 			"/>
		</defs>
		<clipPath id="SVGID_2_">
			<use xlink:href="#SVGID_1_"  style="overflow:visible;"/>
		</clipPath>
		<g class="st9">
			<polygon class="st10" points="1021.3,-66.3 1582.7,-66.3 1863.3,419.9 1582.7,906.1 1021.3,906.1 740.7,419.9 			"/>
		</g>
		<g class="st9">
			<g>
				<polyline class="st11" points="1272.7,370.2 1272.7,369.2 1273.6,369.7 				"/>
				<line class="st12" x1="1276.2" y1="371.2" x2="1358.4" y2="418.6"/>
				<polyline class="st11" points="1359.7,419.4 1360.6,419.9 1359.7,420.4 				"/>
				<line class="st12" x1="1357.1" y1="421.9" x2="1274.9" y2="469.3"/>
				<polyline class="st11" points="1273.6,470.1 1272.7,470.6 1272.7,469.6 				"/>
				<line class="st13" x1="1272.7" y1="466.6" x2="1272.7" y2="371.7"/>
			</g>
			<g>
				<polyline class="st11" points="1228.3,293.3 1228.3,292.3 1229.2,292.8 				"/>
				<line class="st14" x1="1231.8" y1="294.3" x2="1447.1" y2="418.6"/>
				<polyline class="st11" points="1448.4,419.4 1449.3,419.9 1448.4,420.4 				"/>
				<line class="st14" x1="1445.8" y1="421.9" x2="1230.5" y2="546.2"/>
				<polyline class="st11" points="1229.2,547 1228.3,547.5 1228.3,546.5 				"/>
				<line class="st15" x1="1228.3" y1="543.4" x2="1228.3" y2="294.8"/>
			</g>
			<g>
				<polyline class="st11" points="1184,216.4 1184,215.4 1184.8,215.9 				"/>
				<line class="st16" x1="1187.5" y1="217.5" x2="1535.9" y2="418.6"/>
				<polyline class="st11" points="1537.2,419.4 1538,419.9 1537.2,420.4 				"/>
				<line class="st16" x1="1534.5" y1="421.9" x2="1186.1" y2="623.1"/>
				<polyline class="st11" points="1184.8,623.8 1184,624.3 1184,623.3 				"/>
				<line class="st17" x1="1184" y1="620.3" x2="1184" y2="218"/>
			</g>
			<g>
				<polyline class="st11" points="1139.6,139.6 1139.6,138.6 1140.4,139.1 				"/>
				<line class="st18" x1="1143.1" y1="140.6" x2="1624.6" y2="418.6"/>
				<polyline class="st11" points="1625.9,419.4 1626.8,419.9 1625.9,420.4 				"/>
				<line class="st18" x1="1623.3" y1="421.9" x2="1141.8" y2="699.9"/>
				<polyline class="st11" points="1140.4,700.7 1139.6,701.2 1139.6,700.2 				"/>
				<line class="st19" x1="1139.6" y1="697.2" x2="1139.6" y2="141.1"/>
			</g>
			<g>
				<polyline class="st11" points="1095.2,62.7 1095.2,61.7 1096.1,62.2 				"/>
				<line class="st20" x1="1098.7" y1="63.7" x2="1713.3" y2="418.6"/>
				<polyline class="st11" points="1714.7,419.4 1715.5,419.9 1714.7,420.4 				"/>
				<line class="st20" x1="1712" y1="421.9" x2="1097.4" y2="776.8"/>
				<polyline class="st11" points="1096.1,777.6 1095.2,778.1 1095.2,777.1 				"/>
				<line class="st21" x1="1095.2" y1="774" x2="1095.2" y2="64.2"/>
			</g>
			<g>
				<polyline class="st11" points="1050.8,-14.2 1050.8,-15.2 1051.7,-14.7 				"/>
				<line class="st22" x1="1054.3" y1="-13.1" x2="1802.1" y2="418.6"/>
				<polyline class="st11" points="1803.4,419.4 1804.3,419.9 1803.4,420.4 				"/>
				<line class="st22" x1="1800.8" y1="421.9" x2="1053" y2="853.7"/>
				<polyline class="st11" points="1051.7,854.4 1050.8,854.9 1050.8,853.9 				"/>
				<line class="st23" x1="1050.8" y1="850.9" x2="1050.8" y2="-12.6"/>
			</g>
			<g>
				<polyline class="st11" points="1006.4,-91 1006.4,-92 1007.3,-91.5 				"/>
				<line class="st24" x1="1009.9" y1="-90" x2="1890.8" y2="418.6"/>
				<polyline class="st11" points="1892.1,419.4 1893,419.9 1892.1,420.4 				"/>
				<line class="st24" x1="1889.5" y1="421.9" x2="1008.6" y2="930.5"/>
				<polyline class="st11" points="1007.3,931.3 1006.4,931.8 1006.4,930.8 				"/>
				<line class="st25" x1="1006.4" y1="927.8" x2="1006.4" y2="-89.5"/>
			</g>
			<g>
				<polyline class="st11" points="962.1,-167.9 962.1,-168.9 962.9,-168.4 				"/>
				<line class="st26" x1="965.6" y1="-166.9" x2="1979.6" y2="418.6"/>
				<polyline class="st11" points="1980.9,419.4 1981.8,419.9 1980.9,420.4 				"/>
				<line class="st26" x1="1978.3" y1="421.9" x2="964.2" y2="1007.4"/>
				<polyline class="st11" points="962.9,1008.2 962.1,1008.7 962.1,1007.7 				"/>
				<line class="st27" x1="962.1" y1="1004.6" x2="962.1" y2="-166.4"/>
			</g>
			<g>
				<polyline class="st11" points="917.7,-244.8 917.7,-245.8 918.6,-245.3 				"/>
				<line class="st28" x1="921.2" y1="-243.7" x2="2068.3" y2="418.6"/>
				<polyline class="st11" points="2069.6,419.4 2070.5,419.9 2069.6,420.4 				"/>
				<line class="st28" x1="2067" y1="421.9" x2="919.9" y2="1084.3"/>
				<polyline class="st11" points="918.6,1085 917.7,1085.5 917.7,1084.5 				"/>
				<line class="st29" x1="917.7" y1="1081.5" x2="917.7" y2="-243.2"/>
			</g>
			<g>
				<polyline class="st11" points="873.3,-321.6 873.3,-322.6 874.2,-322.1 				"/>
				<line class="st30" x1="876.8" y1="-320.6" x2="2157.1" y2="418.6"/>
				<polyline class="st11" points="2158.4,419.4 2159.2,419.9 2158.4,420.4 				"/>
				<line class="st30" x1="2155.8" y1="421.9" x2="875.5" y2="1161.1"/>
				<polyline class="st11" points="874.2,1161.9 873.3,1162.4 873.3,1161.4 				"/>
				<line class="st31" x1="873.3" y1="1158.4" x2="873.3" y2="-320.1"/>
			</g>
			<g>
				<polyline class="st11" points="828.9,-398.5 828.9,-399.5 829.8,-399 				"/>
				<line class="st32" x1="832.4" y1="-397.5" x2="2245.8" y2="418.6"/>
				<polyline class="st11" points="2247.1,419.4 2248,419.9 2247.1,420.4 				"/>
				<line class="st32" x1="2244.5" y1="421.9" x2="831.1" y2="1238"/>
				<polyline class="st11" points="829.8,1238.8 828.9,1239.3 828.9,1238.3 				"/>
				<line class="st33" x1="828.9" y1="1235.3" x2="828.9" y2="-397"/>
			</g>
			<g>
				<polyline class="st11" points="784.6,-475.3 784.6,-476.3 785.4,-475.8 				"/>
				<line class="st34" x1="788" y1="-474.3" x2="2334.6" y2="418.6"/>
				<polyline class="st11" points="2335.9,419.4 2336.7,419.9 2335.9,420.4 				"/>
				<line class="st34" x1="2333.3" y1="421.9" x2="786.7" y2="1314.9"/>
				<polyline class="st11" points="785.4,1315.6 784.6,1316.1 784.6,1315.1 				"/>
				<line class="st35" x1="784.6" y1="1312.1" x2="784.6" y2="-473.8"/>
			</g>
			<g>
				<polyline class="st11" points="740.2,-552.2 740.2,-553.2 741,-552.7 				"/>
				<line class="st36" x1="743.6" y1="-551.2" x2="2423.3" y2="418.6"/>
				<polyline class="st11" points="2424.6,419.4 2425.5,419.9 2424.6,420.4 				"/>
				<line class="st36" x1="2422" y1="421.9" x2="742.3" y2="1391.7"/>
				<polyline class="st11" points="741,1392.5 740.2,1393 740.2,1392 				"/>
				<line class="st37" x1="740.2" y1="1389" x2="740.2" y2="-550.7"/>
			</g>
		</g>
	</g>
</g>
<g id="DATA">
</g>
<g id="Layer_1">
	<g transform="translate(-60.0942814294, -4.52548339959) rotate(-00) ">
		<circle class="st38" cx="1302" cy="419.9" r="26.9"/>
	</g>
	<g transform="translate(-15.6768680923, 298.681904373) rotate(-00) ">
		<circle class="st39" cx="1302" cy="419.9" r="19.1"/>
	</g>
	<g transform="translate(232.538099829, 203.646752982) rotate(-00) ">
		<circle class="st38" cx="1302" cy="419.9" r="21.7"/>
	</g>
	<g transform="translate(566.975128653, -31.6783837972) rotate(-00) ">
		<circle class="st40" cx="1302" cy="419.9" r="24.7"/>
	</g>
	<g transform="translate(-245.602303951, 190.070302783) rotate(-00) ">
		<circle class="st38" cx="1302" cy="419.9" r="17"/>
	</g>
	<g transform="translate(143.703325053, -131.239018588) rotate(-00) ">
		<circle class="st39" cx="1302" cy="419.9" r="12.7"/>
	</g>
	<g transform="translate(-347.501081243, -67.8822509939) rotate(-00) ">
		<circle class="st41" cx="1302" cy="419.9" r="20.3"/>
	</g>
	<g transform="translate(-420.659177555, 113.13708499) rotate(-00) ">
		<circle class="st39" cx="1302" cy="419.9" r="17.7"/>
	</g>
	<g transform="translate(128.026536805, -67.8822509939) rotate(-00) ">
		<circle class="st41" cx="1302" cy="419.9" r="32.6"/>
	</g>
	<g transform="translate(-159.380267001, 185.544819383) rotate(-00) ">
		<circle class="st40" cx="1302" cy="419.9" r="24.4"/>
	</g>
	<g transform="translate(-154.154689548, -40.7293505963) rotate(-00) ">
		<circle class="st40" cx="1302" cy="419.9" r="24.4"/>
	</g>
	<g transform="translate(-266.504617753, 289.630937574) rotate(-00) ">
		<circle class="st39" cx="1302" cy="419.9" r="16.5"/>
	</g>
	<g transform="translate(195.959049676, 348.462221769) rotate(-00) ">
		<circle class="st38" cx="1302" cy="419.9" r="18.6"/>
	</g>
	<g transform="translate(-488.591698412, -76.9332177931) rotate(-00) ">
		<circle class="st39" cx="1302" cy="419.9" r="19.8"/>
	</g>
	<g transform="translate(-297.858086461, 253.427070377) rotate(-00) ">
		<circle class="st39" cx="1302" cy="419.9" r="20.7"/>
	</g>
	<g transform="translate(-67.9326046922, -235.325136779) rotate(-00) ">
		<circle class="st39" cx="1302" cy="419.9" r="14.1"/>
	</g>
	<g transform="translate(-26.1280210014, -244.376103578) rotate(-00) ">
		<circle class="st40" cx="1302" cy="419.9" r="27.5"/>
	</g>
	<g transform="translate(-553.911437528, 36.2038671968) rotate(-00) ">
		<circle class="st40" cx="1302" cy="419.9" r="27.8"/>
	</g>
	<g transform="translate(-577.426541055, 4.52548339959) rotate(-00) ">
		<circle class="st39" cx="1302" cy="419.9" r="23.7"/>
	</g>
	<g transform="translate(-284.794139835, 330.36028817) rotate(-00) ">
		<circle class="st41" cx="1302" cy="419.9" r="18.2"/>
	</g>
	<g transform="translate(465.076327408, 298.681904373) rotate(-00) ">
		<circle class="st40" cx="1302" cy="419.9" r="20.3"/>
	</g>
	<g transform="translate(-423.271959295, -226.27416998) rotate(-00) ">
		<circle class="st40" cx="1302" cy="419.9" r="20.1"/>
	</g>
	<g transform="translate(159.38000152, 285.105454174) rotate(-00) ">
		<circle class="st39" cx="1302" cy="419.9" r="20"/>
	</g>
	<g transform="translate(271.729903776, -307.732871172) rotate(-00) ">
		<circle class="st40" cx="1302" cy="419.9" r="33"/>
	</g>
	<g transform="translate(20.9021820601, -208.172236381) rotate(-00) ">
		<circle class="st40" cx="1302" cy="419.9" r="27.1"/>
	</g>
	<g transform="translate(-167.21862819, -362.038671968) rotate(-00) ">
		<circle class="st40" cx="1302" cy="419.9" r="26.5"/>
	</g>
	<g transform="translate(-365.790563403, -452.548339959) rotate(-00) ">
		<circle class="st39" cx="1302" cy="419.9" r="12.5"/>
	</g>
	<g transform="translate(229.925346034, -171.968369185) rotate(-00) ">
		<circle class="st40" cx="1302" cy="419.9" r="15.5"/>
	</g>
	<g transform="translate(384.079875895, -285.105454174) rotate(-00) ">
		<circle class="st40" cx="1302" cy="419.9" r="24.6"/>
	</g>
	<g transform="translate(-449.399862527, 9.05096679919) rotate(-00) ">
		<circle class="st40" cx="1302" cy="419.9" r="31.2"/>
	</g>
	<g transform="translate(-248.215063734, 511.379624154) rotate(-00) ">
		<circle class="st39" cx="1302" cy="419.9" r="15.8"/>
	</g>
	<g transform="translate(-190.733739701, 31.6783837972) rotate(-00) ">
		<circle class="st41" cx="1302" cy="419.9" r="21.7"/>
	</g>
	<g transform="translate(452.012384774, -13.5764501988) rotate(-00) ">
		<circle class="st40" cx="1302" cy="419.9" r="33.7"/>
	</g>
	<g transform="translate(-96.6733016404, -339.41125497) rotate(-00) ">
		<circle class="st40" cx="1302" cy="419.9" r="18.7"/>
	</g>
	<g transform="translate(373.628683064, -384.666088965) rotate(-00) ">
		<circle class="st40" cx="1302" cy="419.9" r="34.5"/>
	</g>
	<g transform="translate(216.861317569, -420.869956162) rotate(-00) ">
		<circle class="st40" cx="1302" cy="419.9" r="33.1"/>
	</g>
	<g transform="translate(-13.0640763719, -131.239018588) rotate(-00) ">
		<circle class="st38" cx="1302" cy="419.9" r="33.3"/>
	</g>
	<g transform="translate(250.827673809, -135.764501988) rotate(-00) ">
		<circle class="st41" cx="1302" cy="419.9" r="13.7"/>
	</g>
	<g transform="translate(271.729939705, 2.84217094304e-14) rotate(-00) ">
		<circle class="st41" cx="1302" cy="419.9" r="23.7"/>
	</g>
	<g transform="translate(321.372966425, 13.5764501988) rotate(-00) ">
		<circle class="st40" cx="1302" cy="419.9" r="35"/>
	</g>
	<g transform="translate(-425.884753012, -122.188051789) rotate(-00) ">
		<circle class="st39" cx="1302" cy="419.9" r="18.1"/>
	</g>
	<g transform="translate(193.346261948, 244.376103578) rotate(-00) ">
		<circle class="st40" cx="1302" cy="419.9" r="18.6"/>
	</g>
	<g transform="translate(-449.399858535, -81.4587011927) rotate(-00) ">
		<circle class="st38" cx="1302" cy="419.9" r="20.4"/>
	</g>
	<g transform="translate(381.467134077, -90.5096679919) rotate(-00) ">
		<circle class="st38" cx="1302" cy="419.9" r="13.5"/>
	</g>
	<g transform="translate(-232.538363314, 221.74868658) rotate(-00) ">
		<circle class="st39" cx="1302" cy="419.9" r="30"/>
	</g>
	<g transform="translate(-292.632505016, -171.968369185) rotate(-00) ">
		<circle class="st38" cx="1302" cy="419.9" r="20.4"/>
	</g>
	<g transform="translate(269.117189903, -67.8822509939) rotate(-00) ">
		<circle class="st38" cx="1302" cy="419.9" r="14.4"/>
	</g>
	<g transform="translate(512.106568395, 36.2038671968) rotate(-00) ">
		<circle class="st40" cx="1302" cy="419.9" r="16.6"/>
	</g>
	<g transform="translate(-431.110338449, 67.8822509939) rotate(-00) ">
		<circle class="st41" cx="1302" cy="419.9" r="23.3"/>
	</g>
	<g transform="translate(33.9661207012, 176.493852584) rotate(-00) ">
		<circle class="st40" cx="1302" cy="419.9" r="20"/>
	</g>
	<g transform="translate(279.568278937, -257.952553777) rotate(-00) ">
		<circle class="st40" cx="1302" cy="419.9" r="30.8"/>
	</g>
	<g transform="translate(475.527526227, 27.1529003976) rotate(-00) ">
		<circle class="st39" cx="1302" cy="419.9" r="14.9"/>
	</g>
	<g transform="translate(-13.0640683875, -40.7293505963) rotate(-00) ">
		<circle class="st40" cx="1302" cy="419.9" r="21"/>
	</g>
	<g transform="translate(-350.113868971, 199.121269582) rotate(-00) ">
		<circle class="st39" cx="1302" cy="419.9" r="21"/>
	</g>
	<g transform="translate(-112.350059947, 239.850620178) rotate(-00) ">
		<circle class="st39" cx="1302" cy="419.9" r="15"/>
	</g>
	<g transform="translate(-133.252375746, 185.544819383) rotate(-00) ">
		<circle class="st41" cx="1302" cy="419.9" r="19.8"/>
	</g>
	<g transform="translate(368.40313156, 312.258354572) rotate(-00) ">
		<circle class="st39" cx="1302" cy="419.9" r="22.8"/>
	</g>
	<g transform="translate(449.399622995, 9.05096679919) rotate(-00) ">
		<circle class="st40" cx="1302" cy="419.9" r="17.4"/>
	</g>
	<g transform="translate(472.914708557, 149.340952187) rotate(-00) ">
		<circle class="st40" cx="1302" cy="419.9" r="25.8"/>
	</g>
	<g transform="translate(-339.662714066, 90.5096679919) rotate(-00) ">
		<circle class="st41" cx="1302" cy="419.9" r="17.4"/>
	</g>
	<g transform="translate(-616.618380931, -18.1019335984) rotate(-00) ">
		<circle class="st39" cx="1302" cy="419.9" r="25"/>
	</g>
	<g transform="translate(235.150887557, 162.917402385) rotate(-00) ">
		<circle class="st40" cx="1302" cy="419.9" r="22.3"/>
	</g>
	<g transform="translate(-198.572098893, -316.783837972) rotate(-00) ">
		<circle class="st40" cx="1302" cy="419.9" r="29.5"/>
	</g>
	<g transform="translate(295.24503924, 22.627416998) rotate(-00) ">
		<circle class="st40" cx="1302" cy="419.9" r="27.8"/>
	</g>
	<g transform="translate(-287.406931556, -45.2548339959) rotate(-00) ">
		<circle class="st40" cx="1302" cy="419.9" r="18.2"/>
	</g>
	<g transform="translate(15.6766505177, -226.27416998) rotate(-00) ">
		<circle class="st38" cx="1302" cy="419.9" r="14.2"/>
	</g>
	<g transform="translate(114.962592175, 334.88577157) rotate(-00) ">
		<circle class="st38" cx="1302" cy="419.9" r="16"/>
	</g>
	<g transform="translate(501.655381552, 235.325136779) rotate(-00) ">
		<circle class="st40" cx="1302" cy="419.9" r="21.5"/>
	</g>
	<g transform="translate(378.854286466, -49.7803173955) rotate(-00) ">
		<circle class="st40" cx="1302" cy="419.9" r="29.8"/>
	</g>
	<g transform="translate(-371.016178781, 18.1019335984) rotate(-00) ">
		<circle class="st39" cx="1302" cy="419.9" r="16.2"/>
	</g>
	<g transform="translate(2.6126639702, -122.188051789) rotate(-00) ">
		<circle class="st40" cx="1302" cy="419.9" r="24"/>
	</g>
	<g transform="translate(491.204232635, 190.070302783) rotate(-00) ">
		<circle class="st40" cx="1302" cy="419.9" r="28.3"/>
	</g>
	<g transform="translate(159.379997528, -194.595786183) rotate(-00) ">
		<circle class="st41" cx="1302" cy="419.9" r="28.7"/>
	</g>
	<g transform="translate(143.703277147, -40.7293505963) rotate(-00) ">
		<circle class="st40" cx="1302" cy="419.9" r="22.5"/>
	</g>
	<g transform="translate(70.5451748458, 248.901586978) rotate(-00) ">
		<circle class="st40" cx="1302" cy="419.9" r="16.7"/>
	</g>
	<g transform="translate(-107.124486487, -384.666088965) rotate(-00) ">
		<circle class="st40" cx="1302" cy="419.9" r="31.3"/>
	</g>
	<g transform="translate(-209.023261783, -63.3567675943) rotate(-00) ">
		<circle class="st38" cx="1302" cy="419.9" r="22.8"/>
	</g>
	<g transform="translate(253.440405647, -122.188051789) rotate(-00) ">
		<circle class="st40" cx="1302" cy="419.9" r="30.9"/>
	</g>
	<g transform="translate(-235.151149046, -199.121269582) rotate(-00) ">
		<circle class="st38" cx="1302" cy="419.9" r="29.1"/>
	</g>
	<g transform="translate(-60.094231527, -357.513188568) rotate(-00) ">
		<circle class="st40" cx="1302" cy="419.9" r="14.8"/>
	</g>
	<g transform="translate(-154.154685556, -131.239018588) rotate(-00) ">
		<circle class="st38" cx="1302" cy="419.9" r="20.7"/>
	</g>
	<g transform="translate(237.763675285, 257.952553777) rotate(-00) ">
		<circle class="st38" cx="1302" cy="419.9" r="20.9"/>
	</g>
	<g transform="translate(-39.191967627, -40.7293505963) rotate(-00) ">
		<circle class="st38" cx="1302" cy="419.9" r="27.3"/>
	</g>
	<g transform="translate(-553.911421559, 45.2548339959) rotate(-00) ">
		<circle class="st39" cx="1302" cy="419.9" r="34.4"/>
	</g>
	<g transform="translate(232.538091844, -176.493852584) rotate(-00) ">
		<circle class="st41" cx="1302" cy="419.9" r="31.7"/>
	</g>
	<g transform="translate(248.214862128, -85.9841845923) rotate(-00) ">
		<circle class="st41" cx="1302" cy="419.9" r="16.1"/>
	</g>
	<g transform="translate(-331.824338905, -257.952553777) rotate(-00) ">
		<circle class="st40" cx="1302" cy="419.9" r="25.9"/>
	</g>
	<g transform="translate(-337.049878431, -366.564155367) rotate(-00) ">
		<circle class="st41" cx="1302" cy="419.9" r="11.9"/>
	</g>
	<g transform="translate(415.433326637, -267.003520576) rotate(-00) ">
		<circle class="st40" cx="1302" cy="419.9" r="34.7"/>
	</g>
	<g transform="translate(363.177556104, 140.289985387) rotate(-00) ">
		<circle class="st38" cx="1302" cy="419.9" r="27.1"/>
	</g>
	<g transform="translate(-99.2861133218, 81.4587011927) rotate(-00) ">
		<circle class="st38" cx="1302" cy="419.9" r="18.4"/>
	</g>
	<g transform="translate(49.6428630394, 13.5764501988) rotate(-00) ">
		<circle class="st38" cx="1302" cy="419.9" r="24"/>
	</g>
	<g transform="translate(154.154430056, -13.5764501988) rotate(-00) ">
		<circle class="st40" cx="1302" cy="419.9" r="22"/>
	</g>
	<g transform="translate(-224.699992144, -108.61160159) rotate(-00) ">
		<circle class="st40" cx="1302" cy="419.9" r="22"/>
	</g>
	<g transform="translate(-480.753331235, 9.05096679919) rotate(-00) ">
		<circle class="st39" cx="1302" cy="419.9" r="16.9"/>
	</g>
	<g transform="translate(514.719364108, -22.627416998) rotate(-00) ">
		<circle class="st40" cx="1302" cy="419.9" r="15.5"/>
	</g>
	<g transform="translate(209.022996302, 190.070302783) rotate(-00) ">
		<circle class="st40" cx="1302" cy="419.9" r="19.4"/>
	</g>
	<g transform="translate(-530.396332005, 104.086118191) rotate(-00) ">
		<circle class="st39" cx="1302" cy="419.9" r="19.3"/>
	</g>
	<g transform="translate(-104.511694767, 36.2038671968) rotate(-00) ">
		<circle class="st40" cx="1302" cy="419.9" r="22.6"/>
	</g>
	<g transform="translate(-62.7070072787, -343.936738369) rotate(-00) ">
		<circle class="st41" cx="1302" cy="419.9" r="13"/>
	</g>
	<g transform="translate(-501.655641045, -171.968369185) rotate(-00) ">
		<circle class="st38" cx="1302" cy="419.9" r="20.2"/>
	</g>
	<g transform="translate(164.605584961, 212.697719781) rotate(-00) ">
		<circle class="st40" cx="1302" cy="419.9" r="34.5"/>
	</g>
	<g transform="translate(452.012416712, 13.5764501988) rotate(-00) ">
		<circle class="st41" cx="1302" cy="419.9" r="16.6"/>
	</g>
	<g transform="translate(-355.339454408, 99.5606347911) rotate(-00) ">
		<circle class="st41" cx="1302" cy="419.9" r="23.6"/>
	</g>
	<g transform="translate(282.181094611, 54.3058007951) rotate(-00) ">
		<circle class="st40" cx="1302" cy="419.9" r="26.5"/>
	</g>
	<g transform="translate(310.92177559, 131.239018588) rotate(-00) ">
		<circle class="st40" cx="1302" cy="419.9" r="24.7"/>
	</g>
	<g transform="translate(326.598507948, 122.188051789) rotate(-00) ">
		<circle class="st38" cx="1302" cy="419.9" r="27.8"/>
	</g>
	<g transform="translate(-13.0640803641, 257.952553777) rotate(-00) ">
		<circle class="st39" cx="1302" cy="419.9" r="31.6"/>
	</g>
	<g transform="translate(-122.801214852, -303.207387773) rotate(-00) ">
		<circle class="st40" cx="1302" cy="419.9" r="26.4"/>
	</g>
	<g transform="translate(-580.039328783, -27.1529003976) rotate(-00) ">
		<circle class="st39" cx="1302" cy="419.9" r="24"/>
	</g>
	<g transform="translate(-256.053434903, 479.701240357) rotate(-00) ">
		<circle class="st39" cx="1302" cy="419.9" r="15.4"/>
	</g>
	<g transform="translate(26.1277635048, 524.956074353) rotate(-00) ">
		<circle class="st41" cx="1302" cy="419.9" r="17"/>
	</g>
	<g transform="translate(33.9661127168, -366.564155367) rotate(-00) ">
		<circle class="st40" cx="1302" cy="419.9" r="30.2"/>
	</g>
	<g transform="translate(258.666044978, -149.340952187) rotate(-00) ">
		<circle class="st39" cx="1302" cy="419.9" r="13.7"/>
	</g>
	<g transform="translate(190.733476216, 104.086118191) rotate(-00) ">
		<circle class="st38" cx="1302" cy="419.9" r="20.6"/>
	</g>
	<g transform="translate(480.753075734, 117.662568389) rotate(-00) ">
		<circle class="st40" cx="1302" cy="419.9" r="26.9"/>
	</g>
	<g transform="translate(-323.985933802, -524.956074353) rotate(-00) ">
		<circle class="st38" cx="1302" cy="419.9" r="16"/>
	</g>
	<g transform="translate(535.62166793, 76.9332177931) rotate(-00) ">
		<circle class="st40" cx="1302" cy="419.9" r="16.9"/>
	</g>
	<g transform="translate(-261.279036309, -208.172236381) rotate(-00) ">
		<circle class="st41" cx="1302" cy="419.9" r="22.9"/>
	</g>
	<g transform="translate(-62.7070691577, 171.968369185) rotate(-00) ">
		<circle class="st39" cx="1302" cy="419.9" r="16.7"/>
	</g>
	<g transform="translate(188.120676511, 452.548339959) rotate(-00) ">
		<circle class="st39" cx="1302" cy="419.9" r="23.4"/>
	</g>
	<g transform="translate(-36.5791699182, 461.599306759) rotate(-00) ">
		<circle class="st39" cx="1302" cy="419.9" r="14.8"/>
	</g>
	<g transform="translate(227.312562298, -221.74868658) rotate(-00) ">
		<circle class="st40" cx="1302" cy="419.9" r="16.1"/>
	</g>
	<g transform="translate(-386.692915131, 162.917402385) rotate(-00) ">
		<circle class="st39" cx="1302" cy="419.9" r="15.6"/>
	</g>
	<g transform="translate(-80.9965932358, 203.646752982) rotate(-00) ">
		<circle class="st39" cx="1302" cy="419.9" r="18.2"/>
	</g>
	<g transform="translate(-60.0942814294, 3.7722894484) rotate(-00) ">
		<text transform="matrix(1 0 0 1 1182.0914 419.89)" class="st42 st43 st44">contemporary social issue</text>
	</g>
	<g transform="translate(-15.6768680923, 305.743815491) rotate(-00) ">
		<text transform="matrix(1 0 0 1 1210.2391 419.89)" class="st45 st43 st46">alternate laws of nature</text>
	</g>
	<g transform="translate(232.538099829, 211.123842672) rotate(-00) ">
		<text transform="matrix(1 0 0 1 1259.9231 419.89)" class="st42 st43 st47">diplomacy</text>
	</g>
	<g transform="translate(566.975128653, -23.7235746003) rotate(-00) ">
		<text transform="matrix(1 0 0 1 1235.1191 419.89)" class="st48 st43 st49">heavenly virtue</text>
	</g>
	<g transform="translate(-245.602303951, 196.797581862) rotate(-00) ">
		<text transform="matrix(1 0 0 1 1219.7239 419.89)" class="st42 st43 st50">the battle of the sexes</text>
	</g>
	<g transform="translate(143.703325053, -125.200225802) rotate(-00) ">
		<text transform="matrix(1 0 0 1 1159.7618 419.89)" class="st45 st43 st51">inhospitable environment dwelling life form</text>
	</g>
	<g transform="translate(-347.501081243, -60.6345855412) rotate(-00) ">
		<text transform="matrix(1 0 0 1 1249.1288 419.89)" class="st52 st43 st53">the art of war</text>
	</g>
	<g transform="translate(-420.659177555, 119.96256655) rotate(-00) ">
		<text transform="matrix(1 0 0 1 1193.8896 419.89)" class="st45 st43 st54">force majeure existential risk</text>
	</g>
	<g transform="translate(128.026536805, -58.6612133861) rotate(-00) ">
		<text transform="matrix(1 0 0 1 1177.0511 419.89)" class="st52 st43 st55">the pursuit of knowledge</text>
	</g>
	<g transform="translate(-159.380267001, 193.450048097) rotate(-00) ">
		<text transform="matrix(1 0 0 1 1197.636 419.89)" class="st48 st43 st56">facing general adversity</text>
	</g>
	<g transform="translate(-154.154689548, -32.8241218827) rotate(-00) ">
		<text transform="matrix(1 0 0 1 1243.2367 419.89)" class="st48 st43 st56">romantic love</text>
	</g>
	<g transform="translate(-266.504617753, 296.278540993) rotate(-00) ">
		<text transform="matrix(1 0 0 1 1225.34 419.89)" class="st45 st43 st57">extraterrestrial threat</text>
	</g>
	<g transform="translate(195.959049676, 355.44285104) rotate(-00) ">
		<text transform="matrix(1 0 0 1 1227.7925 419.89)" class="st42 st43 st58">prejudice in society</text>
	</g>
	<g transform="translate(-488.591698412, -69.7572246102) rotate(-00) ">
		<text transform="matrix(1 0 0 1 1200.3036 419.89)" class="st45 st43 st59">man-made existential risk</text>
	</g>
	<g transform="translate(-297.858086461, 260.743417771) rotate(-00) ">
		<text transform="matrix(1 0 0 1 1237.7229 419.89)" class="st45 st43 st60">what&apos;s out there</text>
	</g>
	<g transform="translate(-67.9326046922, -229.074301899) rotate(-00) ">
		<text transform="matrix(1 0 0 1 1234.6769 419.89)" class="st45 st43 st61">starship technology</text>
	</g>
	<g transform="translate(-26.1280210014, -235.983643384) rotate(-00) ">
		<text transform="matrix(1 0 0 1 1217.4402 419.89)" class="st48 st43 st62">human disposition</text>
	</g>
	<g transform="translate(-553.911437528, 44.6475694666) rotate(-00) ">
		<text transform="matrix(1 0 0 1 1266.2235 419.89)" class="st48 st43 st63">survival</text>
	</g>
	<g transform="translate(-577.426541055, 12.3150550076) rotate(-00) ">
		<text transform="matrix(1 0 0 1 1240.854 419.89)" class="st45 st43 st64">existential risk</text>
	</g>
	<g transform="translate(-284.794139835, 337.27666653) rotate(-00) ">
		<text transform="matrix(1 0 0 1 1242.8959 419.89)" class="st52 st43 st65">crackpot theory</text>
	</g>
	<g transform="translate(465.076327408, 305.929569826) rotate(-00) ">
		<text transform="matrix(1 0 0 1 1257.6797 419.89)" class="st48 st43 st53">growing up</text>
	</g>
	<g transform="translate(-423.271959295, -219.061942335) rotate(-00) ">
		<text transform="matrix(1 0 0 1 1261.9154 419.89)" class="st48 st43 st66">way of life</text>
	</g>
	<g transform="translate(159.38000152, 292.299667537) rotate(-00) ">
		<text transform="matrix(1 0 0 1 1179.0432 419.89)" class="st45 st43 st67">mentally distinguished life form</text>
	</g>
	<g transform="translate(271.729903776, -298.456426492) rotate(-00) ">
		<text transform="matrix(1 0 0 1 1213.6858 419.89)" class="st48 st43 st68">pleasant emotion</text>
	</g>
	<g transform="translate(20.9021820601, -199.831976308) rotate(-00) ">
		<text transform="matrix(1 0 0 1 1222.0233 419.89)" class="st48 st43 st69">human aspiration</text>
	</g>
	<g transform="translate(-167.21862819, -353.794968188) rotate(-00) ">
		<text transform="matrix(1 0 0 1 1179.4263 419.89)" class="st48 st43 st70">disagreeable characteristic</text>
	</g>
	<g transform="translate(-365.790563403, -446.55587176) rotate(-00) ">
		<text transform="matrix(1 0 0 1 1264.5178 419.89)" class="st45 st43 st71">real gadget</text>
	</g>
	<g transform="translate(229.925346034, -165.490783612) rotate(-00) ">
		<text transform="matrix(1 0 0 1 1243.9335 419.89)" class="st48 st43 st72">human pleasure</text>
	</g>
	<g transform="translate(384.079875895, -277.167054998) rotate(-00) ">
		<text transform="matrix(1 0 0 1 1196.6505 419.89)" class="st48 st43 st73">agreeable characteristic</text>
	</g>
	<g transform="translate(-449.399862527, 18.0413332746) rotate(-00) ">
		<text transform="matrix(1 0 0 1 1223.9215 419.89)" class="st48 st43 st74">facing adversity</text>
	</g>
	<g transform="translate(-248.215063734, 517.910444219) rotate(-00) ">
		<text transform="matrix(1 0 0 1 1208.0836 419.89)" class="st45 st43 st75">earth-life inspired life form</text>
	</g>
	<g transform="translate(-190.733739701, 39.1554734871) rotate(-00) ">
		<text transform="matrix(1 0 0 1 1233.4265 419.89)" class="st52 st43 st47">topics in science</text>
	</g>
	<g transform="translate(452.012384774, -4.18400092685) rotate(-00) ">
		<text transform="matrix(1 0 0 1 1214.5535 419.89)" class="st48 st43 st76">social interaction</text>
	</g>
	<g transform="translate(-96.6733016404, -332.423670343) rotate(-00) ">
		<text transform="matrix(1 0 0 1 1253.4656 419.89)" class="st48 st43 st77">self-sacrifice</text>
	</g>
	<g transform="translate(373.628683064, -375.153690825) rotate(-00) ">
		<text transform="matrix(1 0 0 1 1220.0381 419.89)" class="st48 st43 st78">human emotion</text>
	</g>
	<g transform="translate(216.861317569, -411.570019584) rotate(-00) ">
		<text transform="matrix(1 0 0 1 1200.5317 419.89)" class="st48 st43 st79">unpleasant emotion</text>
	</g>
	<g transform="translate(-13.0640763719, -121.907989559) rotate(-00) ">
		<text transform="matrix(1 0 0 1 1265.6987 419.89)" class="st42 st43 st80">society</text>
	</g>
	<g transform="translate(250.827673809, -129.575799689) rotate(-00) ">
		<text transform="matrix(1 0 0 1 1209.1279 419.89)" class="st52 st43 st81">discredited scientific theory</text>
	</g>
	<g transform="translate(271.729939705, 7.78957160804) rotate(-00) ">
		<text transform="matrix(1 0 0 1 1241.9142 419.89)" class="st52 st43 st64">human nature</text>
	</g>
	<g transform="translate(321.372966425, 23.1764501988) rotate(-00) ">
		<text transform="matrix(1 0 0 1 1193.9238 419.89)" class="st48 st43 st82">the human condition</text>
	</g>
	<g transform="translate(-425.884753012, -115.293799011) rotate(-00) ">
		<text transform="matrix(1 0 0 1 1221.0313 419.89)" class="st45 st43 st83">human enhancement</text>
	</g>
	<g transform="translate(193.346261948, 251.356732849) rotate(-00) ">
		<text transform="matrix(1 0 0 1 1211.7767 419.89)" class="st48 st43 st58">antagonistic disposition</text>
	</g>
	<g transform="translate(-449.399858535, -74.1935996412) rotate(-00) ">
		<text transform="matrix(1 0 0 1 1152.5874 419.89)" class="st42 st43 st84">past and present moral controversies</text>
	</g>
	<g transform="translate(381.467134077, -84.3546341414) rotate(-00) ">
		<text transform="matrix(1 0 0 1 1274.2152 419.89)" class="st42 st43 st85">activism</text>
	</g>
	<g transform="translate(-232.538363314, 230.546158506) rotate(-00) ">
		<text transform="matrix(1 0 0 1 1207.8503 419.89)" class="st45 st43 st86">novel alien concept</text>
	</g>
	<g transform="translate(-292.632505016, -164.703267633) rotate(-00) ">
		<text transform="matrix(1 0 0 1 1255.0588 419.89)" class="st42 st43 st84">social order</text>
	</g>
	<g transform="translate(269.117189903, -61.5747188853) rotate(-00) ">
		<text transform="matrix(1 0 0 1 1252.0448 419.89)" class="st42 st43 st87">medical ethics</text>
	</g>
	<g transform="translate(512.106568395, 42.8606201646) rotate(-00) ">
		<text transform="matrix(1 0 0 1 1264.9987 419.89)" class="st48 st43 st88">life choice</text>
	</g>
	<g transform="translate(-431.110338449, 75.6048473197) rotate(-00) ">
		<text transform="matrix(1 0 0 1 1222.5775 419.89)" class="st52 st43 st89">the domain of faith</text>
	</g>
	<g transform="translate(33.9661207012, 183.688065947) rotate(-00) ">
		<text transform="matrix(1 0 0 1 1178.5251 419.89)" class="st48 st43 st67">coping with problematic people</text>
	</g>
	<g transform="translate(279.568278937, -249.022350674) rotate(-00) ">
		<text transform="matrix(1 0 0 1 1199.0116 419.89)" class="st48 st43 st90">human characteristic</text>
	</g>
	<g transform="translate(475.527526227, 33.5378367965) rotate(-00) ">
		<text transform="matrix(1 0 0 1 1239.0118 419.89)" class="st45 st43 st91">inorganic life form</text>
	</g>
	<g transform="translate(-13.0640683875, -33.3632436987) rotate(-00) ">
		<text transform="matrix(1 0 0 1 1275.9012 419.89)" class="st48 st43 st92">loyalty</text>
	</g>
	<g transform="translate(-350.113868971, 206.48737648) rotate(-00) ">
		<text transform="matrix(1 0 0 1 1233.4327 419.89)" class="st45 st43 st92">superior life form</text>
	</g>
	<g transform="translate(-112.350059947, 246.24772686) rotate(-00) ">
		<text transform="matrix(1 0 0 1 1241.5664 419.89)" class="st45 st43 st93">parasitic life form</text>
	</g>
	<g transform="translate(-133.252375746, 192.720812566) rotate(-00) ">
		<text transform="matrix(1 0 0 1 1256.1295 419.89)" class="st52 st43 st59">superstition</text>
	</g>
	<g transform="translate(368.40313156, 319.911792299) rotate(-00) ">
		<text transform="matrix(1 0 0 1 1169.0692 419.89)" class="st45 st43 st94">culturally distinguished life form</text>
	</g>
	<g transform="translate(449.399622995, 15.8283713976) rotate(-00) ">
		<text transform="matrix(1 0 0 1 1205.9275 419.89)" class="st48 st43 st95">pathological state of mind</text>
	</g>
	<g transform="translate(472.914708557, 157.473056518) rotate(-00) ">
		<text transform="matrix(1 0 0 1 1229.1218 419.89)" class="st48 st43 st96">familial relations</text>
	</g>
	<g transform="translate(-339.662714066, 97.2870725903) rotate(-00) ">
		<text transform="matrix(1 0 0 1 1235.1237 419.89)" class="st52 st43 st95">organized religion</text>
	</g>
	<g transform="translate(-616.618380931, -10.0985665259) rotate(-00) ">
		<text transform="matrix(1 0 0 1 1229.152 419.89)" class="st45 st43 st97">alternate society</text>
	</g>
	<g transform="translate(235.150887557, 170.484643118) rotate(-00) ">
		<text transform="matrix(1 0 0 1 1204.3657 419.89)" class="st48 st43 st98">coping with an affliction</text>
	</g>
	<g transform="translate(-198.572098893, -308.059460777) rotate(-00) ">
		<text transform="matrix(1 0 0 1 1231.6682 419.89)" class="st48 st43 st99">tough decision</text>
	</g>
	<g transform="translate(295.24503924, 31.0711192678) rotate(-00) ">
		<text transform="matrix(1 0 0 1 1282.6378 419.89)" class="st48 st43 st63">love</text>
	</g>
	<g transform="translate(-287.406931556, -38.3384556364) rotate(-00) ">
		<text transform="matrix(1 0 0 1 1263.5555 419.89)" class="st48 st43 st65">life lesson</text>
	</g>
	<g transform="translate(15.6766505177, -219.994395118) rotate(-00) ">
		<text transform="matrix(1 0 0 1 1246.1512 419.89)" class="st42 st43 st100">male stereotype</text>
	</g>
	<g transform="translate(114.962592175, 341.447118399) rotate(-00) ">
		<text transform="matrix(1 0 0 1 1177.517 419.89)" class="st42 st43 st101">problem of language and meaning</text>
	</g>
	<g transform="translate(501.655381552, 242.771198056) rotate(-00) ">
		<text transform="matrix(1 0 0 1 1253.3761 419.89)" class="st48 st43 st102">familial love</text>
	</g>
	<g transform="translate(378.854286466, -41.019181558) rotate(-00) ">
		<text transform="matrix(1 0 0 1 1192.411 419.89)" class="st48 st43 st103">one-on-one interaction</text>
	</g>
	<g transform="translate(-371.016178781, 24.6928672281) rotate(-00) ">
		<text transform="matrix(1 0 0 1 1239.2566 419.89)" class="st45 st43 st104">space stereotype</text>
	</g>
	<g transform="translate(2.6126639702, -114.34634022) rotate(-00) ">
		<text transform="matrix(1 0 0 1 1247.4995 419.89)" class="st48 st43 st105">human need</text>
	</g>
	<g transform="translate(491.204232635, 198.603986166) rotate(-00) ">
		<text transform="matrix(1 0 0 1 1241.5183 419.89)" class="st48 st43 st106">introspection</text>
	</g>
	<g transform="translate(159.379997528, -186.003618308) rotate(-00) ">
		<text transform="matrix(1 0 0 1 1207.0792 419.89)" class="st52 st43 st107">classical philosophy</text>
	</g>
	<g transform="translate(143.703277147, -33.1329639688) rotate(-00) ">
		<text transform="matrix(1 0 0 1 1228.0947 419.89)" class="st48 st43 st108">coping with death</text>
	</g>
	<g transform="translate(70.5451748458, 255.576405407) rotate(-00) ">
		<text transform="matrix(1 0 0 1 1171.665 419.89)" class="st48 st43 st109">coping with having to do something</text>
	</g>
	<g transform="translate(-107.124486487, -375.658728065) rotate(-00) ">
		<text transform="matrix(1 0 0 1 1231.8994 419.89)" class="st48 st43 st110">purpose in life</text>
	</g>
	<g transform="translate(-209.023261783, -55.7033298674) rotate(-00) ">
		<text transform="matrix(1 0 0 1 1208.42 419.89)" class="st42 st43 st94">social ethical dilemma</text>
	</g>
	<g transform="translate(253.440405647, -113.249187545) rotate(-00) ">
		<text transform="matrix(1 0 0 1 1198.2843 419.89)" class="st48 st43 st111">coping with adversity</text>
	</g>
	<g transform="translate(-235.151149046, -190.462282704) rotate(-00) ">
		<text transform="matrix(1 0 0 1 1199.7347 419.89)" class="st42 st43 st112">domestic social issue</text>
	</g>
	<g transform="translate(-60.094231527, -351.153177168) rotate(-00) ">
		<text transform="matrix(1 0 0 1 1238.8152 419.89)" class="st48 st43 st113">coping with stress</text>
	</g>
	<g transform="translate(-154.154685556, -123.922671195) rotate(-00) ">
		<text transform="matrix(1 0 0 1 1287.2637 419.89)" class="st42 st43 st60">war</text>
	</g>
	<g transform="translate(237.763675285, 265.302231416) rotate(-00) ">
		<text transform="matrix(1 0 0 1 1187.0984 419.89)" class="st42 st43 st114">cross cultural understanding</text>
	</g>
	<g transform="translate(-39.191967627, -32.3680920542) rotate(-00) ">
		<text transform="matrix(1 0 0 1 1174.7695 419.89)" class="st42 st43 st115">values and ethics in society</text>
	</g>
	<g transform="translate(-553.911421559, 54.7524404076) rotate(-00) ">
		<text transform="matrix(1 0 0 1 1220.8322 419.89)" class="st45 st43 st116">alternate reality</text>
	</g>
	<g transform="translate(232.538091844, -167.427667299) rotate(-00) ">
		<text transform="matrix(1 0 0 1 1195.5287 419.89)" class="st52 st43 st117">the domain of reason</text>
	</g>
	<g transform="translate(248.214862128, -79.4030140936) rotate(-00) ">
		<text transform="matrix(1 0 0 1 1187.2151 419.89)" class="st52 st43 st118">the fine arts and the humanities</text>
	</g>
	<g transform="translate(-331.824338905, -249.809069144) rotate(-00) ">
		<text transform="matrix(1 0 0 1 1189.4058 419.89)" class="st48 st43 st119">personal ethical dilemma</text>
	</g>
	<g transform="translate(-337.049878431, -360.653882012) rotate(-00) ">
		<text transform="matrix(1 0 0 1 1237.1111 419.89)" class="st52 st43 st120">topics in technology</text>
	</g>
	<g transform="translate(415.433326637, -257.447079043) rotate(-00) ">
		<text transform="matrix(1 0 0 1 1204.3883 419.89)" class="st48 st43 st121">human personality</text>
	</g>
	<g transform="translate(363.177556104, 148.619685653) rotate(-00) ">
		<text transform="matrix(1 0 0 1 1214.041 419.89)" class="st42 st43 st122">views and customs</text>
	</g>
	<g transform="translate(-99.2861133218, 88.3968393464) rotate(-00) ">
		<text transform="matrix(1 0 0 1 1237.8909 419.89)" class="st42 st43 st123">social dichotomy</text>
	</g>
	<g transform="translate(49.6428630394, 21.4181617677) rotate(-00) ">
		<text transform="matrix(1 0 0 1 1192.4822 419.89)" class="st42 st43 st105">transnational social issue</text>
	</g>
	<g transform="translate(154.154430056, -6.05375654078) rotate(-00) ">
		<text transform="matrix(1 0 0 1 1241.8928 419.89)" class="st48 st43 st124">conflict of duty</text>
	</g>
	<g transform="translate(-224.699992144, -101.088907932) rotate(-00) ">
		<text transform="matrix(1 0 0 1 1190.1559 419.89)" class="st48 st43 st124">personal practical dilemma</text>
	</g>
	<g transform="translate(-480.753331235, 15.7523279524) rotate(-00) ">
		<text transform="matrix(1 0 0 1 1279.1768 419.89)" class="st45 st43 st125">utopia</text>
	</g>
	<g transform="translate(514.719364108, -16.1498314249) rotate(-00) ">
		<text transform="matrix(1 0 0 1 1223.6909 419.89)" class="st48 st43 st72">coping with life issues</text>
	</g>
	<g transform="translate(209.022996302, 197.171205039) rotate(-00) ">
		<text transform="matrix(1 0 0 1 1204.809 419.89)" class="st48 st43 st126">coping with social issues</text>
	</g>
	<g transform="translate(-530.396332005, 111.167653154) rotate(-00) ">
		<text transform="matrix(1 0 0 1 1192.4489 419.89)" class="st45 st43 st127">what if my life were different</text>
	</g>
	<g transform="translate(-104.511694767, 43.8146683554) rotate(-00) ">
		<text transform="matrix(1 0 0 1 1214.2231 419.89)" class="st48 st43 st128">romantic relationship</text>
	</g>
	<g transform="translate(-62.7070072787, -337.856064955) rotate(-00) ">
		<text transform="matrix(1 0 0 1 1267.7776 419.89)" class="st52 st43 st129">aesthetics</text>
	</g>
	<g transform="translate(-501.655641045, -164.738326329) rotate(-00) ">
		<text transform="matrix(1 0 0 1 1245.7316 419.89)" class="st42 st43 st130">gender issues</text>
	</g>
	<g transform="translate(164.605584961, 222.224853936) rotate(-00) ">
		<text transform="matrix(1 0 0 1 1213.9507 419.89)" class="st48 st43 st131">challenges in life</text>
	</g>
	<g transform="translate(452.012416712, 20.2332031667) rotate(-00) ">
		<text transform="matrix(1 0 0 1 1255.7554 419.89)" class="st52 st43 st88">metaphysics</text>
	</g>
	<g transform="translate(-355.339454408, 107.336976238) rotate(-00) ">
		<text transform="matrix(1 0 0 1 1233.3827 419.89)" class="st52 st43 st132">modern science</text>
	</g>
	<g transform="translate(282.181094611, 62.5385575143) rotate(-00) ">
		<text transform="matrix(1 0 0 1 1243.0834 419.89)" class="st48 st43 st133">state of mind</text>
	</g>
	<g transform="translate(310.92177559, 139.193827785) rotate(-00) ">
		<text transform="matrix(1 0 0 1 1227.9286 419.89)" class="st48 st43 st49">group interaction</text>
	</g>
	<g transform="translate(326.598507948, 130.641892067) rotate(-00) ">
		<text transform="matrix(1 0 0 1 1204.5001 419.89)" class="st42 st43 st134">intercultural relations</text>
	</g>
	<g transform="translate(-13.0640803641, 267.002034458) rotate(-00) ">
		<text transform="matrix(1 0 0 1 1205.8051 419.89)" class="st45 st43 st135">novel sci-fi concept</text>
	</g>
	<g transform="translate(-122.801214852, -294.985623823) rotate(-00) ">
		<text transform="matrix(1 0 0 1 1209.455 419.89)" class="st48 st43 st136">amicable disposition</text>
	</g>
	<g transform="translate(-580.039328783, -19.3111888287) rotate(-00) ">
		<text transform="matrix(1 0 0 1 1248.6003 419.89)" class="st45 st43 st105">alternate life</text>
	</g>
	<g transform="translate(-256.053434903, 486.167786678) rotate(-00) ">
		<text transform="matrix(1 0 0 1 1219.7906 419.89)" class="st45 st43 st137">miscellaneous life form</text>
	</g>
	<g transform="translate(26.1277635048, 531.683353432) rotate(-00) ">
		<text transform="matrix(1 0 0 1 1232.8302 419.89)" class="st52 st43 st50">scientific discipline</text>
	</g>
	<g transform="translate(33.9661127168, -357.739700078) rotate(-00) ">
		<text transform="matrix(1 0 0 1 1252.3302 419.89)" class="st48 st43 st138">deadly sin</text>
	</g>
	<g transform="translate(258.666044978, -143.152249887) rotate(-00) ">
		<text transform="matrix(1 0 0 1 1187.1932 419.89)" class="st45 st43 st81">biologically distinguished life form</text>
	</g>
	<g transform="translate(190.733476216, 111.385555345) rotate(-00) ">
		<text transform="matrix(1 0 0 1 1237.0785 419.89)" class="st42 st43 st139">humanoid rights</text>
	</g>
	<g transform="translate(480.753075734, 125.960341237) rotate(-00) ">
		<text transform="matrix(1 0 0 1 1243.9703 419.89)" class="st48 st43 st44">family affairs</text>
	</g>
	<g transform="translate(-323.985933802, -518.394727524) rotate(-00) ">
		<text transform="matrix(1 0 0 1 1236.807 419.89)" class="st42 st43 st101">female stereotype</text>
	</g>
	<g transform="translate(535.62166793, 83.6432854941) rotate(-00) ">
		<text transform="matrix(1 0 0 1 1267.0245 419.89)" class="st48 st43 st140">parenting</text>
	</g>
	<g transform="translate(-261.279036309, -200.504781852) rotate(-00) ">
		<text transform="matrix(1 0 0 1 1276.9629 419.89)" class="st52 st43 st141">ethics</text>
	</g>
	<g transform="translate(-62.7070691577, 178.643187614) rotate(-00) ">
		<text transform="matrix(1 0 0 1 1241.2406 419.89)" class="st45 st43 st109">mind technology</text>
	</g>
	<g transform="translate(188.120676511, 460.297976819) rotate(-00) ">
		<text transform="matrix(1 0 0 1 1223.3779 419.89)" class="st45 st43 st142">fictional apparatus</text>
	</g>
	<g transform="translate(-36.5791699182, 467.959318159) rotate(-00) ">
		<text transform="matrix(1 0 0 1 1229.9724 419.89)" class="st45 st43 st113">spaceborne life form</text>
	</g>
	<g transform="translate(227.312562298, -215.167516081) rotate(-00) ">
		<text transform="matrix(1 0 0 1 1232.9427 419.89)" class="st48 st43 st118">coping with danger</text>
	</g>
	<g transform="translate(-386.692915131, 169.416660001) rotate(-00) ">
		<text transform="matrix(1 0 0 1 1199.6439 419.89)" class="st45 st43 st143">what if society were different</text>
	</g>
	<g transform="translate(-80.9965932358, 210.563131341) rotate(-00) ">
		<text transform="matrix(1 0 0 1 1238.569 419.89)" class="st45 st43 st65">mastering space</text>
	</g>
</g>
</svg>
