<?xml version="1.0" encoding="utf-8"?>
<!-- Generator: Adobe Illustrator 19.0.0, SVG Export Plug-In . SVG Version: 6.00 Build 0)  -->
<svg version="1.1" id="Layer_1" xmlns="http://www.w3.org/2000/svg" xmlns:xlink="http://www.w3.org/1999/xlink" x="0px" y="0px"
	 viewBox="-462 264 34 34" style="enable-background:new -462 264 34 34;" xml:space="preserve">
<style type="text/css">
	.st0{fill:#FFFFFF;}
	.st1{fill:#1D1D1B;}
	.st2{fill:none;}
	.st3{fill:#634E42;}
	.st4{fill:#AF9984;}
</style>
<circle class="st0" cx="-445" cy="281" r="17"/>
<g>
	<g>
		<path class="st1" d="M-445,282.3c0.1,0.1,0.1,0.1,0,0.1c0,0-0.3,0-0.7-0.1c-0.4-0.1-0.7-0.1-0.9-0.2c-0.7-0.1-1.4-0.1-2.2-0.1
			c-0.8,0-1.4,0-1.9,0.1c0.7,0.6,1.7,1.6,3.2,2.9c1.5,1.3,3,2.7,4.5,4.1c0.6,0.6,1.3,1.3,2.1,2c0.7,0.7,1.1,1.2,1.2,1.4
			c0.1,0.1-0.1,0.3-0.6,0.4c-0.5,0.1-1,0.2-1.6,0.2c-0.3,0-0.7,0-1-0.1c-0.3-0.1-0.5-0.2-0.6-0.3l-0.5-0.7c-0.5-1-1.4-2.2-2.6-3.7
			c-0.9-1-1.9-2.2-3-3.6c-1.1-1.3-1.8-2.2-2.1-2.5c-3.1,0.1-5.4,0.2-6.6,0.4c-0.2,0-0.5,0.1-0.8,0c-0.3,0-0.6-0.1-0.8-0.3
			c-0.2-0.2-0.2-0.4,0-0.6c0.1-0.1,0.2-0.2,0.3-0.3c0.1-0.1,0.3-0.1,0.4-0.1c0.9,0,1.6,0,2.2,0c1.3,0,2.8,0,4.5-0.1
			c-0.3-0.4-0.5-0.7-0.6-0.8c-0.1-0.2-0.1-0.2-0.1-0.2c0.2,0,0.4,0.1,0.8,0.4c0.1,0,0.2,0.1,0.4,0.3c0.2,0.2,0.3,0.3,0.3,0.3
			c0.3,0,0.6,0,1.1-0.1c0.9-0.1,1.6-0.1,2,0c0.5,0.1,1.1,0.2,1.6,0.3c0.4,0.1,0.9,0.3,1.5,0.5C-445.3,282.1-445.1,282.2-445,282.3z"
			/>
	</g>
</g>
<g>
	<circle class="st2" cx="-445" cy="281" r="17"/>
</g>
<g>
	<path class="st3" d="M-429.4,275.6v0.6l-2.3,0.6c0-0.2,0-0.4,0-0.6c0-0.2,0-0.4,0-0.6L-429.4,275.6L-429.4,275.6z M-438.9,269.8
		l0.3-1.7h0.6l0.4,1.7c-0.2,0-0.4,0-0.6,0C-438.5,269.8-438.7,269.8-438.9,269.8z M-434,271.2l1.4-1.5l0.4,0.3l-0.9,2.1
		C-433.3,271.8-433.6,271.4-434,271.2z M-443.5,272l-0.9-2l0.4-0.4l1.4,1.5C-443,271.4-443.3,271.8-443.5,272z M-444.9,276.9
		l-2.3-0.6v-0.6h2.2c0,0.2,0,0.4,0,0.6C-444.9,276.5-444.9,276.7-444.9,276.9z M-436.5,284.9h-3.5c-0.2,0-0.4,0.2-0.4,0.4
		s0.2,0.4,0.4,0.4h3.5c0.2,0,0.4-0.2,0.4-0.4S-436.3,284.9-436.5,284.9z M-436.5,286.7h-3.5c-0.2,0-0.4,0.2-0.4,0.4
		c0,0.2,0.2,0.4,0.4,0.4h3.5c0.2,0,0.4-0.2,0.4-0.4C-436.1,286.9-436.3,286.7-436.5,286.7z M-436.3,288.5h-4l1.1,0.7
		c0.1,0.1,0.3,0.2,0.5,0.2h0.8c0.2,0,0.4-0.1,0.5-0.2C-437.4,289.2-436.3,288.5-436.3,288.5z M-433,276.3c0,3.2-2.8,5.3-2.8,7.8
		h-1.8c0-1.6,0.8-3,1.5-4.3c0.7-1.2,1.3-2.3,1.3-3.5c0-2.3-1.8-3.3-3.5-3.3c-1.7,0-3.5,1-3.5,3.3c0,1.2,0.6,2.3,1.3,3.5
		c0.8,1.3,1.5,2.7,1.5,4.3h-1.8c0-2.5-2.8-4.6-2.8-7.8c0-3.3,2.7-5.1,5.3-5.1C-435.6,271.1-433,273-433,276.3z"/>
	<path class="st4" d="M-437.5,283.7c0-1.9,0.9-2.2,1.7-3.7c0.8-1.3,1.5-2.6,1.5-4c0-2.6-2.1-3.8-4-3.8c-1.9,0-4,1.2-4,3.8
		c0,1.4,0.7,2.6,1.5,4c0.9,1.5,1.7,1.8,1.7,3.7H-437.5z"/>
</g>
</svg>
