<?xml version="1.0" encoding="utf-8"?>
<!-- Generator: Adobe Illustrator 19.0.0, SVG Export Plug-In . SVG Version: 6.00 Build 0)  -->
<svg version="1.1" id="Layer_1" xmlns="http://www.w3.org/2000/svg" xmlns:xlink="http://www.w3.org/1999/xlink" x="0px" y="0px"
	 viewBox="-462 264 34 34" style="enable-background:new -462 264 34 34;" xml:space="preserve">
<style type="text/css">
	.st0{fill:#FFFFFF;}
	.st1{fill:#1D1D1B;}
	.st2{fill:none;}
	.st3{fill:#634E42;}
	.st4{fill:#AF9984;}
</style>
<circle class="st0" cx="-445" cy="281" r="17"/>
<g>
	<g>
		<path class="st1" d="M-440.4,291.9c-0.5,0.6-1.6,1.1-3.3,1.5c-1.8,0.4-4.2,0.7-6.9,0.8c-2.3,0.1-4.1,0.1-5.5,0
			c-1.3-0.1-1.9-0.3-1.9-0.5c0-0.1,0.3-0.3,0.8-0.7c0.5-0.3,0.9-0.5,1.1-0.5c0.4,0,0.6,0,0.6,0.1c0,0-0.1,0.1-0.2,0.1
			c-0.1,0.1-0.2,0.1-0.2,0.2c0,0,0.2,0.1,0.6,0.2s1.1,0.1,1.9,0.1c0.9,0,1.9,0,3.2,0c2-0.1,3.6-0.3,4.9-0.6c1.2-0.3,2-0.7,2.4-1.1
			c0.3-0.4,0.3-0.8-0.1-1.2c-0.5-0.5-1.5-0.9-2.8-1.2c-1.3-0.4-3.1-0.7-5.4-1.1c-2.1-0.4-3.6-0.7-4.6-1s-1.7-0.6-2.2-1
			c-0.4-0.4-0.6-0.9-0.4-1.4c0.2-0.7,0.9-1.4,1.8-2c0.8-0.6,1.5-1,2.2-1.2c0.6-0.2,1.1-0.2,1.7-0.1c0.3,0.1,0.5,0.2,0.8,0.4
			c0.2,0.2,0.4,0.4,0.7,0.6c0.2,0.2,0.2,0.2,0.1,0.2c0,0-0.1,0-0.2-0.1s-0.2-0.1-0.3-0.1c-0.1,0-0.2-0.1-0.3-0.1
			c-0.1,0-0.2-0.1-0.4-0.1c-0.5-0.1-1-0.1-1.6,0.1c-0.7,0.2-1.3,0.5-2,0.9c-0.8,0.4-1.2,0.9-1.3,1.4c-0.1,0.4,0.1,0.7,0.5,1
			s1,0.6,1.8,0.8c0.8,0.2,2,0.5,3.7,0.8c2.6,0.4,4.7,0.9,6.4,1.3c1.8,0.4,3.1,1,3.9,1.6C-440.2,290.8-440,291.3-440.4,291.9z"/>
	</g>
</g>
<g>
	<circle class="st2" cx="-445" cy="281" r="17"/>
</g>
<g>
	<path class="st3" d="M-447.2,283.3l1-1.8c-0.2-1.1,0-2.4,0.6-3.8c0.2-0.5,0.5-1.1,0.9-1.6c0.2,0.6,0.6,1.6,0.8,2c0-0.5-0.2-2,0-3.1
		c0.7-0.9,1.6-1.8,2.5-2.6c0.1,0.6,0.2,1.7,0.3,2c0-0.4,0.2-1.9,0.5-2.7c1.3-1,2.7-1.7,3.9-2c-0.3,1.2-0.8,2.8-1.4,4.5
		c-0.6,0.6-1.7,1-2.1,1.1c0.3,0.1,1.1,0.2,1.5,0.2c-0.1,0.3-0.3,0.7-0.4,1c-0.4,0.8-0.8,1.6-1.1,2.3c-0.7,0.4-1.7,0.8-2.1,0.8
		c0.3,0.2,0.9,0.4,1.3,0.5c-1.2,1.8-2.4,2.9-3.5,3c0.9-2.1,1.6-3.7,1.9-4.3c-3.2,3.2-5.9,10.7-7.2,14l2.4-2.5
		c0.3-0.7,1.4-3.5,2.1-5.3c0.2,0,0.4,0.1,0.6,0.1c5.3,0,9.6-15.4,10.7-18.6C-440.3,268.8-450.1,276.1-447.2,283.3z"/>
	<path class="st4" d="M-446.2,281.5c-0.2-1.1,0-2.4,0.6-3.8c0.2-0.5,0.5-1.1,0.9-1.6c0.2,0.6,0.6,1.6,0.8,2c0-0.5-0.2-2,0-3.1
		c0.7-0.9,1.6-1.8,2.5-2.6c0.1,0.6,0.2,1.7,0.3,2c0-0.4,0.2-1.9,0.5-2.7c1.3-1,2.7-1.7,3.9-2c-0.3,1.2-0.8,2.8-1.4,4.5
		c-0.6,0.6-1.7,1-2.1,1.1c0.3,0.1,1.1,0.2,1.5,0.2c-0.1,0.3-0.3,0.7-0.4,1c-0.4,0.8-0.8,1.6-1.1,2.3c-0.7,0.4-1.7,0.8-2.1,0.8
		c0.3,0.2,0.9,0.4,1.3,0.5c-1.2,1.8-2.4,2.9-3.5,3c0.9-2.1,1.6-3.7,1.9-4.3"/>
</g>
</svg>
