<svg version="1" xmlns="http://www.w3.org/2000/svg" width="666.667" height="666.667" viewBox="0 0 500.000000 500.000000"><path d="M48.2 1.9C25.6 8.4 7.4 27 1.6 49.6.2 55.1 0 76.2 0 250c0 215.7-.5 199 6.8 214 5.1 10.6 18.6 24.1 29.2 29.2 15 7.3-1.7 6.8 214 6.8s199 .5 214-6.8c10.5-5.1 24.1-18.6 29.2-29.2 7.3-14.7 6.8.7 6.8-214s.5-199.3-6.8-214c-5.1-10.6-18.7-24.1-29.2-29.2C448.9-.5 465.8 0 249.4.1 65 .1 54.2.2 48.2 1.9zm319.2 39.3C474 71.8 483.3 74.7 484.1 76.9c.5 1.3.8 9.2.7 17.5l-.3 15.1h-469l-.3-15.1c-.1-8.3.1-16.2.6-17.5.9-2.2 9.8-4.9 115.8-35.5C194.8 23.1 247.6 8.2 249 8.1c1.4-.1 54.6 14.8 118.4 33.1zM266.2 154l.3 14 6-4.5c8.1-6.1 23.6-13.9 33.7-16.9 27.2-8.2 58.4-8.1 83.8.4 25 8.2 48.1 26.6 61.3 48.8 25.2 42.5 22.9 105.7-5.5 146.9-9 13.1-25.3 27-40.3 34.6-28 14.1-72.1 16.9-102.7 6.7-16.6-5.6-29.9-13.4-41.8-24.7-17.2-16.2-28.7-37.2-34.1-62.4-1.9-8.8-2.3-13.4-2.3-29.9 0-21.5 1.6-31.9 7.3-48l2.8-8H188v180h-80V211H31v-71h234.9l.3 14zm170.1 267.8c36.2 11.8 44.7 14.9 44.7 16.3 0 1-1.9 5.5-4.2 10.1-8.4 16.3-24.5 29.3-42.4 33.8-7.5 2-11.8 2-184.4 2s-176.9 0-184.4-2c-18-4.6-34.3-17.6-42.5-33.9-2.3-4.7-4-9.1-3.9-10 .2-.9 15.3-6.5 45.3-16.5l45-15.1 141 .3 141 .4 44.8 14.6z"/><path d="M334.9 201.3c-22 8.2-35.7 40.4-32 75.1 2.9 26.6 12.3 44.2 27.9 51.8 6 3 7.5 3.3 15.7 3.3s9.7-.3 15.7-3.3c11.6-5.7 20.1-17.8 25-35.7 1.9-6.9 2.2-10.6 2.2-27 0-17.8-.2-19.5-2.7-27.8-5.2-17-13.1-28.3-23.9-34.2-4.6-2.6-6.5-3-14.8-3.2-6.2-.2-10.8.1-13.1 1z"/></svg>