<svg version="1" xmlns="http://www.w3.org/2000/svg" width="666.667" height="666.667" viewBox="0 0 500.000000 500.000000"><path d="M48.2 1.9C25.6 8.4 7.4 27 1.6 49.6.2 55.1 0 76.2 0 250c0 215.7-.5 199 6.8 214 5.1 10.6 18.6 24.1 29.2 29.2 15 7.3-1.7 6.8 214 6.8s199 .5 214-6.8c10.5-5.1 24.1-18.6 29.2-29.2 7.3-14.7 6.8.7 6.8-214s.5-199.3-6.8-214c-5.1-10.6-18.7-24.1-29.2-29.2C448.9-.5 465.8 0 249.4.1 65 .1 54.2.2 48.2 1.9zM346 85.5c49.8 13 92.9 24.2 95.8 25.1l5.2 1.5V131H53v-9.5c0-5.2.1-9.5.3-9.6.1 0 44.3-11.6 98.2-25.8 76.1-20 98.7-25.5 101-25 1.7.5 43.7 11.4 93.5 24.4zm11 106.2c30.6 8.7 51.2 29.7 61.8 63.4 8.6 26.9 8 63.6-1.3 91.4-8.8 26.5-26.8 47-49.3 56.1-12.2 4.9-17.8 5.9-33.7 5.9-12.6 0-16.2-.4-22.8-2.3-34.7-10-57.6-39.7-64.3-83.7-2-12.5-1.3-40.3 1.1-51.5 1.4-6.3 5.4-19.9 7.2-24.7.4-1.1-4.8-1.3-28.1-1.3H199v164h-54V245H87v-56.1l131.3.3c130.5.3 131.2.3 138.7 2.5z"/><path d="M326.3 236.3c-12.2 4.5-21.6 18.7-25.7 38.9-7.6 37.1 3.2 76.9 23.4 86.2 6.2 2.8 16.8 2.8 23.2-.1 13.6-6.2 22.4-24.3 24.9-51.4 3.2-33.4-7.8-65-25.4-72.9-4.8-2.2-15.3-2.6-20.4-.7z"/></svg>