<svg version="1" xmlns="http://www.w3.org/2000/svg" width="666.667" height="666.667" viewBox="0 0 500.000000 500.000000"><path d="M131.8 48.8L15 82.5V118h470V82.5L367.3 48.7C302.5 30.1 249.3 15 249 15.1c-.3 0-53 15.2-117.2 33.7zM31 175.5V211h76v180h81V211h23.1c21.6 0 23.1.1 22.4 1.7-14 35.9-13.1 80.5 2.3 112.7 6.2 13 11.5 20.8 20.4 30.2 16 16.8 35.8 27.5 60.8 33 11.9 2.6 43.7 2.7 56 .1 26.7-5.6 44.1-14.7 61.6-32.1 18.5-18.6 28.6-39.8 33-69.8 2-13.8 1.4-41.1-1.1-52.8-11.4-52.2-49-86.4-102-92.9-34.2-4.2-69.2 4.5-93.9 23.4L266 168v-28H31v35.5zm330.1 27.6c11.8 5.5 21.4 19.6 26.1 38.4 1.7 7.2 2.2 11.9 2.2 23.5 0 26.6-6.7 46.2-19.8 57.7-9.4 8.3-24 10.7-36.3 6.1-8.1-3-17.1-12.1-21.8-22-6.4-13.5-7.9-21-7.9-40.8 0-14.9.4-18.7 2.2-25.5 7.6-27.3 21.9-41 42.2-40.2 5.5.2 9 .9 13.1 2.8zM61.3 421.8L15 437.5V485h470v-47.9l-46.9-15.5-46.8-15.6-141.9.1-141.9.1-46.2 15.6z"/></svg>