<?xml version="1.0" encoding="utf-8"?>
<!-- Generator: Adobe Illustrator 19.0.0, SVG Export Plug-In . SVG Version: 6.00 Build 0)  -->
<svg version="1.1" id="Layer_1" xmlns="http://www.w3.org/2000/svg" xmlns:xlink="http://www.w3.org/1999/xlink" x="0px" y="0px"
	 viewBox="0 0 34 34" style="enable-background:new 0 0 34 34;" xml:space="preserve">
<style type="text/css">
	.st0{fill:#FFFFFF;}
	.st1{fill:none;}
	.st2{fill:#AF9984;}
	.st3{fill:none;stroke:#634E42;stroke-width:0.7604;}
	.st4{fill:none;stroke:#634E42;stroke-width:0.7935;}
</style>
<circle class="st0" cx="17" cy="17" r="17"/>
<g>
	<circle class="st1" cx="17" cy="17" r="17"/>
</g>
<g>
	<path class="st2" d="M5.2,8.3l0.6,19.3l22.9-1l0.2-18.8L5.2,8.3z M12.7,17.8c-1.9,0-3.4-1.3-3.4-2.9c0-1.6,1.5-2.9,3.4-2.9
		c1.9,0,3.4,1.3,3.4,2.9C16.1,16.5,14.6,17.8,12.7,17.8z M21.8,18.6c-2.2,0-4-1.7-4-3.9c0-2.1,1.8-3.9,4-3.9c2.2,0,4,1.7,4,3.9
		C25.9,16.8,24.1,18.6,21.8,18.6z"/>
	<line id="svg_19_1_" class="st3" x1="28.8" y1="8" x2="28.7" y2="27"/>
	<line id="svg_17_1_" class="st3" x1="5.9" y1="27.7" x2="10.5" y2="27.5"/>
	<ellipse id="svg_9_1_" class="st4" cx="12.7" cy="14.8" rx="3.2" ry="2.7"/>
	<ellipse id="svg_10_1_" class="st3" cx="21.8" cy="14.7" rx="3.7" ry="3.5"/>
	<line id="svg_13_1_" class="st3" x1="10.6" y1="22.3" x2="24" y2="22.3"/>
	<line id="svg_15_1_" class="st3" x1="4.8" y1="8.4" x2="9" y2="8.2"/>
	<line id="svg_16_1_" class="st3" x1="5.2" y1="8.1" x2="5.8" y2="28.1"/>
	<line id="svg_18_1_" class="st3" x1="23.3" y1="8" x2="29.2" y2="7.8"/>
	<line id="svg_20_1_" class="st3" x1="23.7" y1="26.9" x2="28.5" y2="26.6"/>
</g>
</svg>
