<?xml version="1.0" encoding="utf-8"?>
<!-- Generator: Adobe Illustrator 19.0.0, SVG Export Plug-In . SVG Version: 6.00 Build 0)  -->
<svg version="1.1" id="Layer_1" xmlns="http://www.w3.org/2000/svg" xmlns:xlink="http://www.w3.org/1999/xlink" x="0px" y="0px"
	 viewBox="9 -9 34 34" style="enable-background:new 9 -9 34 34;" xml:space="preserve">
<style type="text/css">
	.st0{fill:#FFFFFF;}
	.st1{fill:none;}
	.st2{fill:#AF9984;}
	.st3{fill:none;stroke:#634E42;stroke-width:0.7604;}
	.st4{fill:none;stroke:#634E42;stroke-width:0.7935;}
	.st5{fill:none;stroke:#634E42;stroke-width:4;stroke-miterlimit:10;}
	.st6{fill:none;stroke:#634E42;stroke-width:3.2;stroke-miterlimit:10;}
	.st7{fill:none;stroke:#634E42;stroke-width:5.6;stroke-linecap:round;stroke-miterlimit:10;}
</style>
<circle class="st0" cx="26" cy="8" r="17"/>
<g>
	<circle class="st1" cx="26" cy="8" r="17"/>
</g>
<g>
	<path class="st2" d="M11.4-5L12,14.3l22.9-1l0.2-18.8L11.4-5z M18.9,4.5c-1.9,0-3.4-1.3-3.4-2.9s1.5-2.9,3.4-2.9s3.4,1.3,3.4,2.9
		C22.3,3.2,20.8,4.5,18.9,4.5z M28,5.3c-2.2,0-4-1.7-4-3.9c0-2.1,1.8-3.9,4-3.9s4,1.7,4,3.9C32.1,3.5,30.3,5.3,28,5.3z"/>
	<line id="svg_19_1_" class="st3" x1="35" y1="-5.3" x2="34.9" y2="13.7"/>
	<line id="svg_17_1_" class="st3" x1="12.1" y1="14.4" x2="16.7" y2="14.2"/>
	<ellipse id="svg_9_1_" class="st4" cx="18.9" cy="1.5" rx="3.2" ry="2.7"/>
	<ellipse id="svg_10_1_" class="st3" cx="28" cy="1.4" rx="3.7" ry="3.5"/>
	<line id="svg_13_1_" class="st3" x1="16.8" y1="7.6" x2="25.9" y2="9"/>
	<line id="svg_15_1_" class="st3" x1="11" y1="-4.9" x2="15.2" y2="-5.1"/>
	<line id="svg_16_1_" class="st3" x1="11.4" y1="-5.2" x2="12" y2="14.8"/>
	<line id="svg_18_1_" class="st3" x1="29.5" y1="-5.3" x2="35.4" y2="-5.5"/>
	<line id="svg_20_1_" class="st3" x1="29.9" y1="13.6" x2="34.7" y2="13.3"/>
</g>
<g>
	<circle class="st0" cx="35.5" cy="14.1" r="4.7"/>
	<path class="st5" d="M40.2,10.2c-2.1-2.1-5.6-2.1-7.8,0c-2.1,2.1-2.1,5.6,0,7.8c2.1,2.1,5.6,2.1,7.8,0"/>
	<line class="st6" x1="30.8" y1="14.1" x2="17.8" y2="14.1"/>
	<line class="st7" x1="23" y1="14.1" x2="17.8" y2="14.1"/>
	<circle class="st2" cx="17.8" cy="14.1" r="1.5"/>
</g>
</svg>
