<?xml version="1.0" encoding="utf-8"?>
<!-- Generator: Adobe Illustrator 19.0.0, SVG Export Plug-In . SVG Version: 6.00 Build 0)  -->
<svg version="1.2" baseProfile="tiny" id="Layer_1" xmlns="http://www.w3.org/2000/svg" xmlns:xlink="http://www.w3.org/1999/xlink"
	 x="0px" y="0px" viewBox="0 0 384 384" xml:space="preserve">
<g>
	<path fill="#201F1C" d="M253.3,182.1c-10.5,0.3-18,5.3-22.5,15.1c-4.7,9.6-7,20.8-6.9,33.4c-0.1,12.7,2.2,23.8,6.9,33.2
		c4.4,9.9,11.9,15,22.5,15.3c10.5-0.3,18.1-5.4,22.8-15.3c4.4-9.5,6.6-20.5,6.6-33.2c0-12.7-2.2-23.8-6.6-33.4
		C271.4,187.4,263.8,182.4,253.3,182.1z"/>
	<path fill="#201F1C" d="M384,46c-1.5-24.7-21.5-44.7-46.3-46H46.5C20.8,1.3,0.1,22.8,0.1,48.9v286c0,27,22,49,49,49h286
		c26,0,47.4-20.5,48.9-46V46z M303.1,293.4c-10.7,16.3-29.7,22-49.8,22.3c-19.9-0.3-38.8-7.8-49.6-24.1
		c-10.8-16.1-17.7-36.7-17.7-60.8c0-15.2,2.7-29.4,7.3-41.8h-45.2l0.1,126.6h-40.9l-0.1-126.6h-45v-43.5h192v0
		c19.7,0.5,38.3,6.9,48.8,22.8c10.7,15.8,18.2,38.1,18.2,62.5C321.2,254.9,313.8,277.3,303.1,293.4z M343.7,100.6h-304V85.1
		l152-38.5l152,38.5V100.6z"/>
	<polygon fill="#FFFFFF" points="39.7,85.1 39.7,100.6 343.7,100.6 343.7,85.1 191.7,46.6 	"/>
	<path fill="#FFFFFF" d="M254.3,145.6L254.3,145.6l-192,0v43.5h45l0.1,126.6h40.9l-0.1-126.6h45.2c-4.6,12.4-7.3,26.6-7.3,41.8
		c0,24,6.9,44.7,17.7,60.8c10.8,16.3,29.7,23.8,49.6,24.1c20-0.3,39.1-6,49.8-22.3c10.7-16.1,18.2-38.5,18.2-62.5
		c0-24.4-7.5-46.7-18.2-62.5C292.5,152.5,273.9,146.1,254.3,145.6z M276.1,263.9c-4.7,9.9-12.3,15-22.8,15.3
		c-10.5-0.3-18-5.4-22.5-15.3c-4.7-9.5-7-20.5-6.9-33.2c-0.1-12.7,2.2-23.8,6.9-33.4c4.4-9.8,11.9-14.8,22.5-15.1
		c10.5,0.3,18.1,5.3,22.8,15.1c4.4,9.6,6.6,20.8,6.6,33.4C282.7,243.3,280.5,254.4,276.1,263.9z"/>
</g>
</svg>
